<?xml version="1.0"?>
<svg width="800" height="126" xmlns="http://www.w3.org/2000/svg" xmlns:svg="http://www.w3.org/2000/svg" preserveAspectRatio="xMidYMid meet" version="1.0">
 <g class="layer">
  <title>Layer 1</title>
  <g fill="#000000" id="svg_1" transform="matrix(0.1 0 0 -0.1 0 0)">
   <path d="m4600,-64c-52,-35 -92,-82 -88,-102c2,-10 21,-30 42,-45c22,-14 44,-37 49,-50c15,-36 20,-644 6,-688c-6,-20 -25,-58 -41,-85c-30,-50 -31,-72 -2,-83c11,-4 26,6 48,32l32,37l46,-31c25,-17 53,-31 61,-31c22,0 127,99 127,119c0,27 -62,71 -98,71c-25,0 -32,9 -22,29c18,34 30,113 30,198c0,56 4,93 12,101c27,27 89,5 112,-42c15,-31 27,-169 26,-304c-1,-53 4,-70 31,-116c50,-84 57,-85 144,-29c80,52 91,75 54,109c-44,40 -49,64 -49,249l0,176l-45,44c-26,26 -54,45 -67,45c-20,0 -19,3 14,38c54,56 58,70 58,200c0,111 -1,120 -23,140c-32,30 -89,29 -152,-4c-44,-22 -58,-25 -115,-20c-50,4 -75,12 -108,36c-23,16 -44,30 -45,29c-1,0 -18,-11 -37,-23zm287,-134c7,-4 19,-27 28,-51c12,-36 13,-59 5,-125l-9,-81l-62,-57c-34,-32 -65,-55 -70,-52c-5,3 -9,74 -9,157c0,170 6,189 63,206c42,12 40,12 54,3z" fill="#ffffff" id="svg_2" stroke="#000000" stroke-width="33"/>
   <path d="m304,-96c-67,-40 -146,-120 -175,-176c-22,-44 -25,-115 -5,-162c21,-51 111,-136 221,-208c114,-74 125,-86 160,-153c22,-44 23,-54 13,-90c-6,-22 -20,-52 -31,-68l-19,-27l-39,22c-22,12 -64,45 -94,73c-54,50 -55,52 -55,108c0,42 4,59 15,63c9,4 15,19 15,36c0,24 -4,29 -20,26c-33,-5 -128,-91 -150,-135c-45,-89 -36,-155 31,-222c49,-49 179,-131 208,-131c14,0 53,33 114,96c96,100 156,185 166,236l6,31l25,-46c14,-25 37,-68 52,-95c15,-28 52,-77 83,-110c42,-46 65,-62 101,-72c55,-16 69,-10 198,86c138,103 223,278 219,447c-3,91 -75,269 -133,328c-54,54 -77,62 -119,41c-30,-14 -33,-14 -56,8l-25,23l-22,-20c-13,-11 -51,-39 -84,-61c-123,-82 -221,-233 -234,-360c-4,-37 -8,-59 -9,-49c-2,31 -88,112 -190,180c-55,37 -115,85 -134,108c-46,53 -84,145 -70,168c14,22 75,26 113,6c53,-28 70,-51 70,-98c0,-24 6,-52 14,-62c12,-17 17,-16 85,35c71,52 71,53 71,100c0,36 -7,56 -30,88c-40,56 -75,72 -158,72c-60,0 -75,-4 -128,-36zm736,-190c14,-20 39,-54 55,-77c44,-61 67,-113 82,-192c8,-38 16,-82 19,-97c9,-41 -24,-214 -51,-267c-37,-73 -45,-77 -97,-42c-131,88 -214,237 -220,391c-3,107 51,242 118,292c49,36 64,35 94,-8z" fill="#ffffff" id="svg_3" stroke="#000000" stroke-width="33"/>
   <path d="m2572,-201c-35,-28 -62,-57 -60,-64c2,-7 25,-28 53,-47c38,-25 51,-41 57,-68c5,-19 9,-153 9,-297c1,-278 -3,-311 -47,-370c-26,-35 -31,-63 -11,-63c17,0 30,11 50,43c22,34 56,35 95,2c17,-14 33,-25 37,-25c9,0 122,88 131,101c10,17 -21,41 -73,54c-39,10 -47,16 -44,31c2,11 6,69 8,131c5,125 9,132 76,118c43,-10 54,-20 83,-77c22,-43 24,-60 24,-174l0,-126l39,-39c37,-38 73,-50 86,-29c3,5 12,10 20,10c14,0 115,59 115,68c0,2 -15,22 -34,43c-34,37 -56,91 -56,136c0,33 -20,161 -34,212c-10,40 -33,68 -80,96c-14,9 -12,15 19,54c19,24 35,52 35,62c0,10 5,21 10,24c26,16 1,191 -31,218c-40,32 -67,32 -130,-2c-71,-38 -137,-41 -204,-10c-25,12 -48,25 -51,30c-10,17 -29,8 -92,-42zm333,-119c22,-43 19,-141 -6,-195c-20,-43 -84,-105 -108,-105c-8,0 -11,45 -11,143c0,125 2,146 18,159c42,37 87,37 107,-2z" fill="#ffffff" id="svg_4" stroke="#000000" stroke-width="33"/>
   <path d="m5790,-181l-25,-30l-53,22c-59,25 -68,23 -139,-30c-68,-50 -76,-89 -78,-381c-2,-177 -5,-245 -14,-244c-6,1 -15,2 -19,2c-27,5 -81,179 -68,220c3,9 10,58 15,109c6,55 20,116 35,155c23,55 24,64 11,77c-13,13 -20,10 -61,-29c-25,-25 -62,-74 -82,-110l-37,-65l-3,-162l-4,-162l40,-78c21,-43 47,-92 56,-110c17,-33 85,-93 105,-93c6,0 11,-4 11,-10c0,-18 98,-11 143,10c23,11 67,40 97,65c30,25 60,45 66,45c14,0 24,23 24,56c0,30 -36,34 -45,5c-3,-11 -15,-31 -26,-45c-26,-32 -85,-36 -120,-7c-21,17 -24,29 -28,105c-4,117 1,136 40,136c23,0 48,14 92,51c34,28 67,54 74,56c7,3 13,16 13,29c0,30 -26,32 -56,3c-20,-19 -26,-20 -59,-9c-21,7 -53,10 -71,7l-35,-6l3,137l3,137l28,-3c63,-8 232,106 225,152c-5,32 -30,30 -58,-5z" fill="#ffffff" id="svg_5" stroke="#000000" stroke-width="33"/>
   <path d="m1733,-186c-17,-27 -30,-28 -104,-9c-37,9 -159,-79 -195,-141c-26,-44 -26,-48 -21,-177c3,-73 10,-186 16,-252c7,-75 8,-129 2,-145c-5,-14 -12,-42 -16,-63c-3,-20 -19,-53 -35,-71c-35,-39 -37,-52 -11,-66c28,-15 38,-13 44,10c3,10 21,27 40,36c31,15 44,15 93,6c32,-7 65,-19 74,-27c26,-24 41,-18 103,36c63,56 63,65 6,95c-32,16 -164,19 -174,4c-4,-6 -10,-8 -15,-5c-5,3 -1,20 9,38c25,43 35,179 20,282c-6,44 -10,96 -10,115c1,19 -4,65 -10,102c-14,78 -8,92 44,101c37,6 186,94 194,114c6,14 -14,43 -28,43c-5,0 -16,-12 -26,-26z" fill="#ffffff" id="svg_6" stroke="#000000" stroke-width="33"/>
   <path d="m6952,-186c-18,-21 -28,-25 -50,-20c-77,20 -77,20 -150,-33c-100,-73 -136,-136 -135,-240c0,-92 15,-241 33,-333c10,-52 11,-76 2,-105c-6,-21 -16,-54 -22,-74c-6,-20 -22,-47 -35,-59c-32,-30 -32,-47 1,-62c22,-10 28,-9 47,15c32,39 68,49 130,36c28,-6 62,-20 74,-31l22,-21l65,49c36,27 65,57 66,66c0,9 -16,26 -35,38c-31,19 -47,22 -120,19l-84,-4l20,35c18,30 21,51 20,165c0,71 -5,146 -11,165c-5,19 -10,57 -10,83c0,26 -5,68 -11,93c-13,52 -4,69 44,80c17,3 48,17 69,30c21,13 40,24 42,24c14,0 96,63 96,74c0,15 -20,36 -34,36c-6,0 -21,-12 -34,-26z" fill="#ffffff" id="svg_7" stroke="#000000" stroke-width="33"/>
   <path d="m7780,-179c-16,-30 -41,-33 -100,-11c-30,11 -61,20 -68,20c-8,0 -43,-20 -78,-45l-64,-44l-26,35c-51,66 -71,64 -180,-18c-58,-43 -64,-45 -64,-19c0,24 -37,71 -57,71c-21,0 -153,-87 -153,-101c0,-6 14,-28 32,-49l31,-40l-6,-152c-4,-98 -2,-182 5,-234c16,-111 -8,-234 -55,-284c-32,-34 -30,-52 7,-74c14,-8 20,-8 24,3c2,7 13,22 23,32c16,16 23,17 44,7c14,-6 25,-15 25,-20c0,-20 36,-4 98,43c37,28 69,53 71,55c12,11 -45,54 -71,54c-28,0 -29,1 -22,38c4,20 11,45 15,54c5,9 9,131 9,271c0,216 2,256 15,267c22,18 60,-1 82,-42c14,-27 18,-67 21,-233c4,-193 3,-201 -17,-219c-12,-11 -21,-26 -21,-34c0,-16 93,-112 109,-112c5,0 32,15 59,33c28,17 59,37 69,43c13,9 15,16 8,27c-5,8 -19,27 -30,42c-18,26 -20,49 -23,267c-3,131 -1,238 3,238c3,0 15,-5 26,-11c11,-5 39,-13 62,-17l42,-8l6,-289c8,-355 13,-394 55,-444c32,-38 56,-39 103,-3c20,15 45,32 55,38c37,20 41,38 13,66c-14,14 -30,44 -36,66c-17,61 -36,341 -34,491c2,132 11,178 41,213c8,10 12,24 9,33c-9,21 -44,19 -57,-4z" fill="#ffffff" id="svg_8" stroke="#000000" stroke-width="33"/>
   <path d="m2094,-198c-75,-34 -167,-87 -185,-108c-9,-11 -10,-20 -2,-32c17,-28 41,-25 58,7c14,27 58,51 70,39c3,-3 -4,-31 -15,-63c-11,-32 -20,-73 -20,-90c0,-52 -31,-186 -52,-228c-16,-33 -43,-131 -65,-240c-6,-30 -51,-81 -118,-133c-35,-27 -38,-33 -26,-48c20,-24 39,-20 68,14c31,37 40,37 89,0c21,-16 43,-30 47,-30c14,0 118,81 124,96c3,9 -8,29 -27,49c-33,34 -33,34 -20,80c18,65 37,75 145,75c49,0 95,-4 101,-8c17,-10 34,-79 34,-135c0,-27 5,-58 12,-70c16,-31 60,-67 80,-67c14,0 120,69 147,96c2,2 -17,24 -43,48c-30,30 -46,54 -46,70c0,29 -13,94 -45,226c-13,52 -28,133 -35,180c-17,120 -29,169 -58,219c-49,84 -112,99 -218,53zm73,-219c13,-31 61,-228 63,-255c0,-5 -15,-8 -32,-8c-31,0 -47,-8 -112,-54c-31,-22 -42,-16 -27,12c6,12 11,36 11,56c0,22 9,45 25,64c22,26 25,39 25,107c0,68 11,115 26,115c3,0 12,-17 21,-37z" fill="#ffffff" id="svg_9" stroke="#000000" stroke-width="33"/>
   <path d="m3928,-203c-25,-18 -59,-43 -74,-56l-27,-23l4,-212c4,-291 1,-369 -12,-360c-6,3 -28,43 -50,87l-39,81l0,132c0,148 7,172 67,250c52,66 76,105 69,111c-10,10 -95,-47 -144,-96c-63,-63 -96,-121 -133,-229c-36,-107 -36,-157 -3,-264c35,-115 67,-178 121,-238c67,-75 122,-104 182,-97c55,7 111,35 161,81c19,18 50,43 67,55c37,25 54,68 32,82c-26,16 -40,9 -54,-25c-28,-67 -95,-87 -141,-41l-25,25l4,262c5,317 9,346 46,354c71,15 201,102 201,135c0,23 -36,25 -64,4c-19,-15 -61,-11 -80,6c-19,17 -62,8 -108,-24z" fill="#ffffff" id="svg_10" stroke="#000000" stroke-width="33"/>
   <path d="m6146,-197c-33,-13 -71,-33 -84,-44c-14,-10 -30,-19 -36,-19c-7,0 -27,-13 -46,-29c-29,-25 -33,-32 -24,-48c18,-30 47,-27 67,6c16,27 52,49 63,39c2,-3 -3,-27 -11,-54c-8,-27 -15,-72 -15,-100c0,-49 -32,-171 -84,-329c-13,-38 -31,-96 -41,-128c-15,-50 -25,-65 -79,-109c-65,-55 -80,-90 -39,-96c15,-2 32,8 52,30l29,33l46,-32c26,-18 51,-33 57,-33c5,0 34,18 64,40c63,47 71,76 29,109c-23,18 -26,26 -21,57c3,20 13,47 22,60c15,23 21,24 123,24l108,0l12,-33c7,-18 12,-61 12,-94c0,-60 16,-95 60,-130c18,-15 66,-17 75,-3c3,5 30,26 60,46c30,20 55,40 55,44c0,5 -15,18 -34,29c-41,26 -49,45 -77,191c-12,63 -30,140 -39,170c-17,54 -28,117 -36,214c-5,65 -53,167 -92,194c-40,29 -100,27 -176,-5zm78,-240c28,-88 56,-201 56,-228c0,-10 -10,-15 -28,-15c-30,0 -87,-24 -97,-41c-4,-5 -14,-13 -25,-19c-16,-9 -18,-6 -13,33c3,23 9,56 14,72c5,17 13,64 19,105c9,68 37,150 50,150c3,0 14,-26 24,-57z" fill="#ffffff" id="svg_11" stroke="#000000" stroke-width="33"/>
   <path d="m3302,-236c-34,-25 -62,-49 -62,-52c0,-3 10,-16 23,-30c25,-27 28,-80 27,-472l0,-195l-30,-48c-35,-56 -39,-87 -11,-87c10,0 21,6 24,14c12,30 43,37 70,16c14,-11 31,-20 39,-20c20,0 118,89 118,107c0,22 -30,42 -62,43c-15,0 -29,4 -32,8c-3,5 4,37 15,73c19,59 20,86 17,319c-3,222 -6,262 -23,310c-11,30 -27,56 -35,58c-9,1 -43,-18 -78,-44z" fill="#ffffff" id="svg_12" stroke="#000000" stroke-width="33"/>
  </g>
 </g>
</svg>