<?xml version="1.0" standalone="no"?>
<!DOCTYPE svg PUBLIC "-//W3C//DTD SVG 20010904//EN"
 "http://www.w3.org/TR/2001/REC-SVG-20010904/DTD/svg10.dtd">
<svg version="1.0" xmlns="http://www.w3.org/2000/svg"
 width="800.000000pt" height="126.000000pt" viewBox="0 0 800.000000 126.000000"
 preserveAspectRatio="xMidYMid meet">

<g transform="translate(0.000000,126.000000) scale(0.100000,-0.100000)"
fill="#000000" stroke="none">
<path d="M4600 1206 c-52 -35 -92 -82 -88 -102 2 -10 21 -30 42 -45 22 -14 44
-37 49 -50 15 -36 20 -644 6 -688 -6 -20 -25 -58 -41 -85 -30 -50 -31 -72 -2
-83 11 -4 26 6 48 32 l32 37 46 -31 c25 -17 53 -31 61 -31 22 0 127 99 127
119 0 27 -62 71 -98 71 -25 0 -32 9 -22 29 18 34 30 113 30 198 0 56 4 93 12
101 27 27 89 5 112 -42 15 -31 27 -169 26 -304 -1 -53 4 -70 31 -116 50 -84
57 -85 144 -29 80 52 91 75 54 109 -44 40 -49 64 -49 249 l0 176 -45 44 c-26
26 -54 45 -67 45 -20 0 -19 3 14 38 54 56 58 70 58 200 0 111 -1 120 -23 140
-32 30 -89 29 -152 -4 -44 -22 -58 -25 -115 -20 -50 4 -75 12 -108 36 -23 16
-44 30 -45 29 -1 0 -18 -11 -37 -23z m287 -134 c7 -4 19 -27 28 -51 12 -36 13
-59 5 -125 l-9 -81 -62 -57 c-34 -32 -65 -55 -70 -52 -5 3 -9 74 -9 157 0 170
6 189 63 206 42 12 40 12 54 3z"/>
<path d="M304 1174 c-67 -40 -146 -120 -175 -176 -22 -44 -25 -115 -5 -162 21
-51 111 -136 221 -208 114 -74 125 -86 160 -153 22 -44 23 -54 13 -90 -6 -22
-20 -52 -31 -68 l-19 -27 -39 22 c-22 12 -64 45 -94 73 -54 50 -55 52 -55 108
0 42 4 59 15 63 9 4 15 19 15 36 0 24 -4 29 -20 26 -33 -5 -128 -91 -150 -135
-45 -89 -36 -155 31 -222 49 -49 179 -131 208 -131 14 0 53 33 114 96 96 100
156 185 166 236 l6 31 25 -46 c14 -25 37 -68 52 -95 15 -28 52 -77 83 -110 42
-46 65 -62 101 -72 55 -16 69 -10 198 86 138 103 223 278 219 447 -3 91 -75
269 -133 328 -54 54 -77 62 -119 41 -30 -14 -33 -14 -56 8 l-25 23 -22 -20
c-13 -11 -51 -39 -84 -61 -123 -82 -221 -233 -234 -360 -4 -37 -8 -59 -9 -49
-2 31 -88 112 -190 180 -55 37 -115 85 -134 108 -46 53 -84 145 -70 168 14 22
75 26 113 6 53 -28 70 -51 70 -98 0 -24 6 -52 14 -62 12 -17 17 -16 85 35 71
52 71 53 71 100 0 36 -7 56 -30 88 -40 56 -75 72 -158 72 -60 0 -75 -4 -128
-36z m736 -190 c14 -20 39 -54 55 -77 44 -61 67 -113 82 -192 8 -38 16 -82 19
-97 9 -41 -24 -214 -51 -267 -37 -73 -45 -77 -97 -42 -131 88 -214 237 -220
391 -3 107 51 242 118 292 49 36 64 35 94 -8z"/>
<path d="M2572 1069 c-35 -28 -62 -57 -60 -64 2 -7 25 -28 53 -47 38 -25 51
-41 57 -68 5 -19 9 -153 9 -297 1 -278 -3 -311 -47 -370 -26 -35 -31 -63 -11
-63 17 0 30 11 50 43 22 34 56 35 95 2 17 -14 33 -25 37 -25 9 0 122 88 131
101 10 17 -21 41 -73 54 -39 10 -47 16 -44 31 2 11 6 69 8 131 5 125 9 132 76
118 43 -10 54 -20 83 -77 22 -43 24 -60 24 -174 l0 -126 39 -39 c37 -38 73
-50 86 -29 3 5 12 10 20 10 14 0 115 59 115 68 0 2 -15 22 -34 43 -34 37 -56
91 -56 136 0 33 -20 161 -34 212 -10 40 -33 68 -80 96 -14 9 -12 15 19 54 19
24 35 52 35 62 0 10 5 21 10 24 26 16 1 191 -31 218 -40 32 -67 32 -130 -2
-71 -38 -137 -41 -204 -10 -25 12 -48 25 -51 30 -10 17 -29 8 -92 -42z m333
-119 c22 -43 19 -141 -6 -195 -20 -43 -84 -105 -108 -105 -8 0 -11 45 -11 143
0 125 2 146 18 159 42 37 87 37 107 -2z"/>
<path d="M5790 1089 l-25 -30 -53 22 c-59 25 -68 23 -139 -30 -68 -50 -76 -89
-78 -381 -2 -177 -5 -245 -14 -244 -6 1 -15 2 -19 2 -27 5 -81 179 -68 220 3
9 10 58 15 109 6 55 20 116 35 155 23 55 24 64 11 77 -13 13 -20 10 -61 -29
-25 -25 -62 -74 -82 -110 l-37 -65 -3 -162 -4 -162 40 -78 c21 -43 47 -92 56
-110 17 -33 85 -93 105 -93 6 0 11 -4 11 -10 0 -18 98 -11 143 10 23 11 67 40
97 65 30 25 60 45 66 45 14 0 24 23 24 56 0 30 -36 34 -45 5 -3 -11 -15 -31
-26 -45 -26 -32 -85 -36 -120 -7 -21 17 -24 29 -28 105 -4 117 1 136 40 136
23 0 48 14 92 51 34 28 67 54 74 56 7 3 13 16 13 29 0 30 -26 32 -56 3 -20
-19 -26 -20 -59 -9 -21 7 -53 10 -71 7 l-35 -6 3 137 3 137 28 -3 c63 -8 232
106 225 152 -5 32 -30 30 -58 -5z"/>
<path d="M1733 1084 c-17 -27 -30 -28 -104 -9 -37 9 -159 -79 -195 -141 -26
-44 -26 -48 -21 -177 3 -73 10 -186 16 -252 7 -75 8 -129 2 -145 -5 -14 -12
-42 -16 -63 -3 -20 -19 -53 -35 -71 -35 -39 -37 -52 -11 -66 28 -15 38 -13 44
10 3 10 21 27 40 36 31 15 44 15 93 6 32 -7 65 -19 74 -27 26 -24 41 -18 103
36 63 56 63 65 6 95 -32 16 -164 19 -174 4 -4 -6 -10 -8 -15 -5 -5 3 -1 20 9
38 25 43 35 179 20 282 -6 44 -10 96 -10 115 1 19 -4 65 -10 102 -14 78 -8 92
44 101 37 6 186 94 194 114 6 14 -14 43 -28 43 -5 0 -16 -12 -26 -26z"/>
<path d="M6952 1084 c-18 -21 -28 -25 -50 -20 -77 20 -77 20 -150 -33 -100
-73 -136 -136 -135 -240 0 -92 15 -241 33 -333 10 -52 11 -76 2 -105 -6 -21
-16 -54 -22 -74 -6 -20 -22 -47 -35 -59 -32 -30 -32 -47 1 -62 22 -10 28 -9
47 15 32 39 68 49 130 36 28 -6 62 -20 74 -31 l22 -21 65 49 c36 27 65 57 66
66 0 9 -16 26 -35 38 -31 19 -47 22 -120 19 l-84 -4 20 35 c18 30 21 51 20
165 0 71 -5 146 -11 165 -5 19 -10 57 -10 83 0 26 -5 68 -11 93 -13 52 -4 69
44 80 17 3 48 17 69 30 21 13 40 24 42 24 14 0 96 63 96 74 0 15 -20 36 -34
36 -6 0 -21 -12 -34 -26z"/>
<path d="M7780 1091 c-16 -30 -41 -33 -100 -11 -30 11 -61 20 -68 20 -8 0 -43
-20 -78 -45 l-64 -44 -26 35 c-51 66 -71 64 -180 -18 -58 -43 -64 -45 -64 -19
0 24 -37 71 -57 71 -21 0 -153 -87 -153 -101 0 -6 14 -28 32 -49 l31 -40 -6
-152 c-4 -98 -2 -182 5 -234 16 -111 -8 -234 -55 -284 -32 -34 -30 -52 7 -74
14 -8 20 -8 24 3 2 7 13 22 23 32 16 16 23 17 44 7 14 -6 25 -15 25 -20 0 -20
36 -4 98 43 37 28 69 53 71 55 12 11 -45 54 -71 54 -28 0 -29 1 -22 38 4 20
11 45 15 54 5 9 9 131 9 271 0 216 2 256 15 267 22 18 60 -1 82 -42 14 -27 18
-67 21 -233 4 -193 3 -201 -17 -219 -12 -11 -21 -26 -21 -34 0 -16 93 -112
109 -112 5 0 32 15 59 33 28 17 59 37 69 43 13 9 15 16 8 27 -5 8 -19 27 -30
42 -18 26 -20 49 -23 267 -3 131 -1 238 3 238 3 0 15 -5 26 -11 11 -5 39 -13
62 -17 l42 -8 6 -289 c8 -355 13 -394 55 -444 32 -38 56 -39 103 -3 20 15 45
32 55 38 37 20 41 38 13 66 -14 14 -30 44 -36 66 -17 61 -36 341 -34 491 2
132 11 178 41 213 8 10 12 24 9 33 -9 21 -44 19 -57 -4z"/>
<path d="M2094 1072 c-75 -34 -167 -87 -185 -108 -9 -11 -10 -20 -2 -32 17
-28 41 -25 58 7 14 27 58 51 70 39 3 -3 -4 -31 -15 -63 -11 -32 -20 -73 -20
-90 0 -52 -31 -186 -52 -228 -16 -33 -43 -131 -65 -240 -6 -30 -51 -81 -118
-133 -35 -27 -38 -33 -26 -48 20 -24 39 -20 68 14 31 37 40 37 89 0 21 -16 43
-30 47 -30 14 0 118 81 124 96 3 9 -8 29 -27 49 -33 34 -33 34 -20 80 18 65
37 75 145 75 49 0 95 -4 101 -8 17 -10 34 -79 34 -135 0 -27 5 -58 12 -70 16
-31 60 -67 80 -67 14 0 120 69 147 96 2 2 -17 24 -43 48 -30 30 -46 54 -46 70
0 29 -13 94 -45 226 -13 52 -28 133 -35 180 -17 120 -29 169 -58 219 -49 84
-112 99 -218 53z m73 -219 c13 -31 61 -228 63 -255 0 -5 -15 -8 -32 -8 -31 0
-47 -8 -112 -54 -31 -22 -42 -16 -27 12 6 12 11 36 11 56 0 22 9 45 25 64 22
26 25 39 25 107 0 68 11 115 26 115 3 0 12 -17 21 -37z"/>
<path d="M3928 1067 c-25 -18 -59 -43 -74 -56 l-27 -23 4 -212 c4 -291 1 -369
-12 -360 -6 3 -28 43 -50 87 l-39 81 0 132 c0 148 7 172 67 250 52 66 76 105
69 111 -10 10 -95 -47 -144 -96 -63 -63 -96 -121 -133 -229 -36 -107 -36 -157
-3 -264 35 -115 67 -178 121 -238 67 -75 122 -104 182 -97 55 7 111 35 161 81
19 18 50 43 67 55 37 25 54 68 32 82 -26 16 -40 9 -54 -25 -28 -67 -95 -87
-141 -41 l-25 25 4 262 c5 317 9 346 46 354 71 15 201 102 201 135 0 23 -36
25 -64 4 -19 -15 -61 -11 -80 6 -19 17 -62 8 -108 -24z"/>
<path d="M6146 1073 c-33 -13 -71 -33 -84 -44 -14 -10 -30 -19 -36 -19 -7 0
-27 -13 -46 -29 -29 -25 -33 -32 -24 -48 18 -30 47 -27 67 6 16 27 52 49 63
39 2 -3 -3 -27 -11 -54 -8 -27 -15 -72 -15 -100 0 -49 -32 -171 -84 -329 -13
-38 -31 -96 -41 -128 -15 -50 -25 -65 -79 -109 -65 -55 -80 -90 -39 -96 15 -2
32 8 52 30 l29 33 46 -32 c26 -18 51 -33 57 -33 5 0 34 18 64 40 63 47 71 76
29 109 -23 18 -26 26 -21 57 3 20 13 47 22 60 15 23 21 24 123 24 l108 0 12
-33 c7 -18 12 -61 12 -94 0 -60 16 -95 60 -130 18 -15 66 -17 75 -3 3 5 30 26
60 46 30 20 55 40 55 44 0 5 -15 18 -34 29 -41 26 -49 45 -77 191 -12 63 -30
140 -39 170 -17 54 -28 117 -36 214 -5 65 -53 167 -92 194 -40 29 -100 27
-176 -5z m78 -240 c28 -88 56 -201 56 -228 0 -10 -10 -15 -28 -15 -30 0 -87
-24 -97 -41 -4 -5 -14 -13 -25 -19 -16 -9 -18 -6 -13 33 3 23 9 56 14 72 5 17
13 64 19 105 9 68 37 150 50 150 3 0 14 -26 24 -57z"/>
<path d="M3302 1034 c-34 -25 -62 -49 -62 -52 0 -3 10 -16 23 -30 25 -27 28
-80 27 -472 l0 -195 -30 -48 c-35 -56 -39 -87 -11 -87 10 0 21 6 24 14 12 30
43 37 70 16 14 -11 31 -20 39 -20 20 0 118 89 118 107 0 22 -30 42 -62 43 -15
0 -29 4 -32 8 -3 5 4 37 15 73 19 59 20 86 17 319 -3 222 -6 262 -23 310 -11
30 -27 56 -35 58 -9 1 -43 -18 -78 -44z"/>
</g>
</svg>
